<?xml version="1.0" standalone="no"?>
<!DOCTYPE svg PUBLIC "-//W3C//DTD SVG 20010904//EN"
 "http://www.w3.org/TR/2001/REC-SVG-20010904/DTD/svg10.dtd">
<svg version="1.0" xmlns="http://www.w3.org/2000/svg"
 width="128.000000pt" height="128.000000pt" viewBox="0 0 128.000000 128.000000"
 preserveAspectRatio="xMidYMid meet">

<g transform="translate(0.000000,128.000000) scale(0.100000,-0.100000)"
fill="#000000" stroke="none">
<path d="M14 1257 c-2 -7 -3 -78 -2 -157 l3 -145 53 -3 52 -3 0 105 0 106 106
0 105 0 -3 53 -3 52 -153 3 c-119 2 -154 0 -158 -11z"/>
<path d="M957 1264 c-4 -4 -7 -29 -7 -56 l0 -48 105 0 105 0 0 -106 0 -105 53
3 52 3 0 155 0 155 -151 3 c-82 1 -153 -1 -157 -4z"/>
<path d="M428 1004 l-208 -104 0 -230 0 -230 210 -105 210 -105 210 105 210
105 0 230 0 230 -210 105 c-115 58 -211 105 -212 104 -2 0 -96 -47 -210 -105z
m347 -78 l130 -63 -132 -66 -133 -67 -132 66 -133 67 130 62 c72 35 132 63
135 63 3 1 64 -27 135 -62z m-220 -275 l30 -17 3 -127 c2 -83 -1 -127 -8 -127
-6 0 -64 27 -130 60 l-120 60 0 130 0 129 98 -45 c53 -25 111 -53 127 -63z
m395 -21 l0 -130 -120 -60 c-66 -33 -124 -60 -130 -60 -7 0 -10 44 -8 128 l3
127 125 62 c69 34 126 62 128 62 1 1 2 -57 2 -129z"/>
<path d="M14 317 c-2 -7 -3 -78 -2 -157 l3 -145 155 0 155 0 3 52 3 53 -105 0
-106 0 0 105 0 105 -50 0 c-32 0 -52 -5 -56 -13z"/>
<path d="M1160 226 l0 -106 -106 0 -105 0 3 -52 3 -53 155 0 155 0 0 155 0
155 -52 3 -53 3 0 -105z"/>
</g>
</svg>
